<?xml version="1.0" standalone="no"?>
<!DOCTYPE svg PUBLIC "-//W3C//DTD SVG 20010904//EN"
 "http://www.w3.org/TR/2001/REC-SVG-20010904/DTD/svg10.dtd">
<svg version="1.0" xmlns="http://www.w3.org/2000/svg"
 width="350.000000pt" height="350.000000pt" viewBox="0 0 350.000000 350.000000"
 preserveAspectRatio="xMidYMid meet">
<metadata>
Created by potrace 1.11, written by Peter Selinger 2001-2013
</metadata>
<g transform="translate(0.000000,350.000000) scale(0.100000,-0.100000)"
fill="#000000" stroke="none">
<path d="M1595 3184 c-218 -31 -381 -78 -540 -154 -389 -188 -682 -521 -822
-935 -59 -177 -78 -295 -78 -505 0 -210 19 -328 78 -505 67 -197 180 -401 264
-475 136 -119 225 -143 518 -138 228 3 231 4 320 91 58 57 75 98 75 184 0 49
2 53 28 59 70 15 178 55 230 86 31 18 92 68 135 111 l79 78 52 -3 51 -3 5
-210 c4 -137 10 -220 19 -240 22 -52 57 -90 112 -120 l54 -30 320 0 320 0 65
37 c192 108 370 424 442 783 32 158 32 432 0 590 -131 654 -618 1144 -1268
1276 -95 19 -384 34 -459 23z m437 -224 c267 -56 486 -172 680 -359 217 -208
346 -439 410 -734 18 -83 22 -134 22 -277 0 -195 -17 -302 -75 -467 -42 -121
-145 -315 -198 -375 -77 -86 -85 -88 -358 -88 -335 0 -333 -1 -333 260 l0 160
318 0 317 -1 28 31 c51 57 44 72 -128 298 -85 111 -155 204 -155 207 0 3 54 5
120 5 118 0 120 0 152 29 27 24 33 36 32 70 -1 34 -12 54 -61 118 -33 43 -191
251 -352 463 -161 212 -302 393 -313 403 -20 17 -72 23 -103 11 -9 -4 -115
-136 -236 -295 -121 -159 -222 -289 -224 -289 -2 0 -41 9 -87 20 -430 103
-847 -202 -865 -635 -6 -128 13 -222 68 -332 92 -186 285 -331 502 -378 21 -4
27 -11 27 -33 0 -38 -35 -90 -68 -103 -16 -7 -95 -9 -202 -7 l-175 3 -70 40
c-82 48 -121 95 -193 234 -61 117 -105 239 -134 374 -31 146 -31 408 0 554 59
273 173 490 359 684 228 237 484 371 808 424 124 20 358 13 487 -15z m402
-1150 c-128 -5 -137 -6 -155 -29 -18 -23 -23 -45 -19 -86 1 -11 72 -112 157
-225 l155 -205 -245 -3 c-135 -1 -358 -1 -496 0 l-250 3 77 100 c261 336 259
333 228 394 -22 42 -55 51 -181 51 -63 0 -115 2 -115 5 0 2 111 149 246 325
l246 320 244 -323 245 -322 -137 -5z m-1001 161 c14 -6 5 -23 -63 -115 -91
-123 -97 -146 -51 -198 l29 -33 127 -5 127 -5 -145 -191 c-79 -105 -150 -200
-156 -212 -18 -34 -13 -70 17 -103 l28 -31 124 1 125 1 -47 -25 c-190 -100
-432 -60 -589 96 -69 69 -114 158 -136 266 -14 72 -14 87 0 155 45 222 215
380 442 411 35 5 142 -3 168 -12z"/>
</g>
</svg>
