<svg version="1" xmlns="http://www.w3.org/2000/svg" width="466.667" height="466.667" viewBox="0 0 350.000000 350.000000"><path d="M159.5 31.6c-21.8 3.1-38.1 7.8-54 15.4-38.9 18.8-68.2 52.1-82.2 93.5-5.9 17.7-7.8 29.5-7.8 50.5s1.9 32.8 7.8 50.5c6.7 19.7 18 40.1 26.4 47.5 13.6 11.9 22.5 14.3 51.8 13.8 22.8-.3 23.1-.4 32-9.1 5.8-5.7 7.5-9.8 7.5-18.4 0-4.9.2-5.3 2.8-5.9 7-1.5 17.8-5.5 23-8.6 3.1-1.8 9.2-6.8 13.5-11.1l7.9-7.8 5.2.3 5.1.3.5 21c.4 13.7 1 22 1.9 24 2.2 5.2 5.7 9 11.2 12l5.4 3h64l6.5-3.7c19.2-10.8 37-42.4 44.2-78.3 3.2-15.8 3.2-43.2 0-59-13.1-65.4-61.8-114.4-126.8-127.6-9.5-1.9-38.4-3.4-45.9-2.3zM203.2 54c26.7 5.6 48.6 17.2 68 35.9 21.7 20.8 34.6 43.9 41 73.4 1.8 8.3 2.2 13.4 2.2 27.7 0 19.5-1.7 30.2-7.5 46.7-4.2 12.1-14.5 31.5-19.8 37.5-7.7 8.6-8.5 8.8-35.8 8.8-33.5 0-33.3.1-33.3-26v-16h31.8l31.7.1 2.8-3.1c5.1-5.7 4.4-7.2-12.8-29.8-8.5-11.1-15.5-20.4-15.5-20.7 0-.3 5.4-.5 12-.5 11.8 0 12 0 15.2-2.9 2.7-2.4 3.3-3.6 3.2-7-.1-3.4-1.2-5.4-6.1-11.8-3.3-4.3-19.1-25.1-35.2-46.3-16.1-21.2-30.2-39.3-31.3-40.3-2-1.7-7.2-2.3-10.3-1.1-.9.4-11.5 13.6-23.6 29.5-12.1 15.9-22.2 28.9-22.4 28.9-.2 0-4.1-.9-8.7-2-43-10.3-84.7 20.2-86.5 63.5-.6 12.8 1.3 22.2 6.8 33.2 9.2 18.6 28.5 33.1 50.2 37.8 2.1.4 2.7 1.1 2.7 3.3 0 3.8-3.5 9-6.8 10.3-1.6.7-9.5.9-20.2.7l-17.5-.3-7-4c-8.2-4.8-12.1-9.5-19.3-23.4-6.1-11.7-10.5-23.9-13.4-37.4-3.1-14.6-3.1-40.8 0-55.4 5.9-27.3 17.3-49 35.9-68.4 22.8-23.7 48.4-37.1 80.8-42.4 12.4-2 35.8-1.3 48.7 1.5zm40.2 115c-12.8.5-13.7.6-15.5 2.9-1.8 2.3-2.3 4.5-1.9 8.6.1 1.1 7.2 11.2 15.7 22.5l15.5 20.5-24.5.3c-13.5.1-35.8.1-49.6 0l-25-.3 7.7-10c26.1-33.6 25.9-33.3 22.8-39.4-2.2-4.2-5.5-5.1-18.1-5.1-6.3 0-11.5-.2-11.5-.5 0-.2 11.1-14.9 24.6-32.5l24.6-32 24.4 32.3 24.5 32.2-13.7.5zm-100.1-16.1c1.4.6.5 2.3-6.3 11.5-9.1 12.3-9.7 14.6-5.1 19.8l2.9 3.3 12.7.5 12.7.5-14.5 19.1c-7.9 10.5-15 20-15.6 21.2-1.8 3.4-1.3 7 1.7 10.3l2.8 3.1 12.4-.1 12.5-.1-4.7 2.5c-19 10-43.2 6-58.9-9.6-6.9-6.9-11.4-15.8-13.6-26.6-1.4-7.2-1.4-8.7 0-15.5 4.5-22.2 21.5-38 44.2-41.1 3.5-.5 14.2.3 16.8 1.2z"/></svg>